<svg width="28" height="28" viewBox="0 0 28 28" fill="none" xmlns="http://www.w3.org/2000/svg">
<path d="M14 25C20.0751 25 25 20.0751 25 14C25 7.92487 20.0751 3 14 3C7.92487 3 3 7.92487 3 14C3 20.0751 7.92487 25 14 25Z" fill="#FFF0F5"/>
<path d="M14 19C16.7614 19 19 16.7614 19 14C19 11.2386 16.7614 9 14 9C11.2386 9 9 11.2386 9 14C9 16.7614 11.2386 19 14 19Z" stroke="#F06292" stroke-width="1.2"/>
<path d="M12 13.5C12.5523 13.5 13 13.0523 13 12.5C13 11.9477 12.5523 11.5 12 11.5C11.4477 11.5 11 11.9477 11 12.5C11 13.0523 11.4477 13.5 12 13.5Z" fill="#F06292"/>
<path d="M16 13.5C16.5523 13.5 17 13.0523 17 12.5C17 11.9477 16.5523 11.5 16 11.5C15.4477 11.5 15 11.9477 15 12.5C15 13.0523 15.4477 13.5 16 13.5Z" fill="#F06292"/>
<path d="M14 17C14.5523 17 15 16.5523 15 16C15 15.4477 14.5523 15 14 15C13.4477 15 13 15.4477 13 16C13 16.5523 13.4477 17 14 17Z" fill="#F06292"/>
</svg>
